<svg width="35.000000" height="35.000000" viewBox="0 0 35 35" fill="none" xmlns="http://www.w3.org/2000/svg" xmlns:xlink="http://www.w3.org/1999/xlink">
	<desc>
			Created with Pixso.
	</desc>
	<defs/>
	<path id="Vector" d="M0 32.45C0 33.86 1.1 35 2.46 35L32.53 35C33.89 35 35 33.86 35 32.45L35 2.54C35 1.13 33.89 0 32.53 0L2.46 0C1.8 0 1.18 0.26 0.72 0.74C0.26 1.22 0 1.86 0 2.54L0 32.45ZM34.45 32.45C34.45 33.54 33.59 34.43 32.53 34.43L2.46 34.43C1.4 34.43 0.54 33.54 0.54 32.45L0.54 5.64L34.45 5.64L34.45 32.45ZM0.54 2.54C0.54 1.45 1.4 0.56 2.46 0.56L32.53 0.56C33.59 0.56 34.45 1.45 34.45 2.54L34.45 5.08L0.54 5.08L0.54 2.54Z" fill="#A9A9A9" fill-opacity="1.000000" fill-rule="nonzero"/>
	<path id="Vector" d="M20.78 2.55L3.87 2.55C3.8 2.55 3.73 2.58 3.68 2.63C3.62 2.69 3.6 2.76 3.6 2.83C3.6 2.91 3.62 2.98 3.68 3.03C3.73 3.08 3.8 3.11 3.87 3.11L20.78 3.11C20.85 3.11 20.92 3.08 20.97 3.03C21.02 2.98 21.05 2.91 21.05 2.83C21.05 2.76 21.02 2.69 20.97 2.63C20.92 2.58 20.85 2.55 20.78 2.55ZM24.48 1.75C23.9 1.75 23.42 2.23 23.42 2.83C23.42 3.43 23.9 3.92 24.48 3.92C25.07 3.92 25.55 3.43 25.55 2.83C25.55 2.23 25.07 1.75 24.48 1.75ZM24.48 3.36C24.35 3.35 24.23 3.29 24.13 3.2C24.04 3.1 23.99 2.97 23.99 2.83C23.99 2.7 24.04 2.57 24.13 2.47C24.23 2.37 24.35 2.31 24.48 2.31C24.76 2.31 25 2.55 25 2.83C25 3.12 24.77 3.36 24.48 3.36ZM27.83 1.75C27.25 1.75 26.77 2.23 26.77 2.83C26.77 3.43 27.25 3.92 27.83 3.92C28.42 3.92 28.9 3.43 28.9 2.83C28.9 2.23 28.42 1.75 27.83 1.75ZM27.83 3.36C27.7 3.35 27.58 3.29 27.48 3.2C27.39 3.1 27.34 2.97 27.34 2.83C27.34 2.7 27.39 2.57 27.48 2.47C27.58 2.37 27.7 2.31 27.83 2.31C28.11 2.31 28.35 2.55 28.35 2.83C28.35 3.12 28.12 3.36 27.83 3.36ZM31.18 1.75C30.6 1.75 30.12 2.23 30.12 2.83C30.12 3.43 30.6 3.92 31.18 3.92C31.77 3.92 32.25 3.43 32.25 2.83C32.25 2.23 31.77 1.75 31.18 1.75ZM31.18 3.36C31.05 3.35 30.93 3.29 30.83 3.2C30.74 3.1 30.69 2.97 30.69 2.83C30.69 2.7 30.74 2.57 30.83 2.47C30.93 2.37 31.05 2.31 31.18 2.31C31.46 2.31 31.7 2.55 31.7 2.83C31.7 3.12 31.47 3.36 31.18 3.36ZM2.83 12.28L11.35 12.28C11.43 12.28 11.5 12.25 11.55 12.2C11.6 12.15 11.63 12.07 11.63 12C11.52 7.93 11.86 7.31 11.35 7.31L2.83 7.31C2.76 7.31 2.69 7.34 2.64 7.39C2.58 7.45 2.56 7.52 2.56 7.59L2.56 12C2.56 12.07 2.58 12.15 2.64 12.2C2.69 12.25 2.76 12.28 2.83 12.28ZM3.1 7.87L11.08 7.87L11.08 11.72L3.1 11.72L3.1 7.87ZM11.35 13.68L5.57 13.68C5.5 13.68 5.43 13.71 5.38 13.76C5.33 13.82 5.3 13.89 5.3 13.96C5.3 14.04 5.33 14.11 5.38 14.16C5.43 14.21 5.5 14.24 5.57 14.24L11.35 14.24C11.43 14.24 11.5 14.21 11.55 14.16C11.6 14.11 11.63 14.04 11.63 13.96C11.63 13.89 11.6 13.82 11.55 13.76C11.5 13.71 11.43 13.68 11.35 13.68ZM2.83 16.2L11.35 16.2C11.43 16.2 11.5 16.17 11.55 16.12C11.6 16.07 11.63 16 11.63 15.92C11.63 15.85 11.6 15.78 11.55 15.72C11.5 15.67 11.43 15.64 11.35 15.64L2.83 15.64C2.76 15.64 2.69 15.67 2.64 15.72C2.58 15.78 2.56 15.85 2.56 15.92C2.56 16 2.58 16.07 2.64 16.12C2.69 16.17 2.76 16.2 2.83 16.2ZM2.83 18.16L8.72 18.16C8.8 18.16 8.87 18.13 8.92 18.08C8.97 18.03 9 17.95 9 17.88C9 17.81 8.97 17.74 8.92 17.68C8.87 17.63 8.8 17.6 8.72 17.6L2.83 17.6C2.76 17.6 2.69 17.63 2.64 17.68C2.58 17.74 2.56 17.81 2.56 17.88C2.56 17.95 2.58 18.03 2.64 18.08C2.69 18.13 2.76 18.16 2.83 18.16ZM22.18 13.68L16.4 13.68C16.33 13.68 16.26 13.71 16.21 13.76C16.16 13.82 16.13 13.89 16.13 13.96C16.13 14.04 16.16 14.11 16.21 14.16C16.26 14.21 16.33 14.24 16.4 14.24L22.18 14.24C22.26 14.24 22.33 14.21 22.38 14.16C22.43 14.11 22.46 14.04 22.46 13.96C22.46 13.89 22.43 13.82 22.38 13.76C22.33 13.71 22.26 13.68 22.18 13.68ZM13.66 16.2L22.18 16.2C22.26 16.2 22.33 16.17 22.38 16.12C22.43 16.07 22.46 16 22.46 15.92C22.46 15.85 22.43 15.78 22.38 15.72C22.33 15.67 22.26 15.64 22.18 15.64L13.66 15.64C13.59 15.64 13.52 15.67 13.47 15.72C13.41 15.78 13.39 15.85 13.39 15.92C13.39 16 13.41 16.07 13.47 16.12C13.52 16.17 13.59 16.2 13.66 16.2ZM13.66 18.16L19.55 18.16C19.63 18.16 19.7 18.13 19.75 18.08C19.8 18.03 19.83 17.95 19.83 17.88C19.83 17.81 19.8 17.74 19.75 17.68C19.7 17.63 19.63 17.6 19.55 17.6L13.66 17.6C13.59 17.6 13.52 17.63 13.47 17.68C13.41 17.74 13.39 17.81 13.39 17.88C13.39 17.95 13.41 18.03 13.47 18.08C13.52 18.13 13.59 18.16 13.66 18.16ZM33.01 13.68L27.23 13.68C27.16 13.68 27.09 13.71 27.04 13.76C26.99 13.82 26.96 13.89 26.96 13.96C26.96 14.04 26.99 14.11 27.04 14.16C27.09 14.21 27.16 14.24 27.23 14.24L33.01 14.24C33.09 14.24 33.16 14.21 33.21 14.16C33.26 14.11 33.29 14.04 33.29 13.96C33.29 13.89 33.26 13.82 33.21 13.76C33.16 13.71 33.09 13.68 33.01 13.68ZM24.49 16.2L33.01 16.2C33.09 16.2 33.16 16.17 33.21 16.12C33.26 16.07 33.29 16 33.29 15.92C33.29 15.85 33.26 15.78 33.21 15.72C33.16 15.67 33.09 15.64 33.01 15.64L24.49 15.64C24.42 15.64 24.35 15.67 24.3 15.72C24.24 15.78 24.22 15.85 24.22 15.92C24.22 16 24.24 16.07 24.3 16.12C24.35 16.17 24.42 16.2 24.49 16.2ZM24.49 18.16L30.38 18.16C30.46 18.16 30.53 18.13 30.58 18.08C30.63 18.03 30.66 17.95 30.66 17.88C30.66 17.81 30.63 17.74 30.58 17.68C30.53 17.63 30.46 17.6 30.38 17.6L24.49 17.6C24.42 17.6 24.35 17.63 24.3 17.68C24.24 17.74 24.22 17.81 24.22 17.88C24.22 17.95 24.24 18.03 24.3 18.08C24.35 18.13 24.42 18.16 24.49 18.16ZM24.49 12.28L33.01 12.28C33.09 12.28 33.16 12.25 33.21 12.2C33.26 12.15 33.29 12.08 33.29 12L33.29 7.59C33.29 7.52 33.26 7.45 33.21 7.39C33.16 7.34 33.09 7.31 33.01 7.31L24.49 7.31C24.42 7.31 24.35 7.34 24.3 7.39C24.24 7.45 24.22 7.52 24.22 7.59L24.22 12C24.22 12.08 24.24 12.15 24.3 12.2C24.35 12.25 24.42 12.28 24.49 12.28ZM24.76 7.87L32.74 7.87L32.74 11.72L24.76 11.72L24.76 7.87ZM13.66 12.28L22.18 12.28C22.26 12.28 22.33 12.25 22.38 12.2C22.43 12.15 22.46 12.08 22.46 12L22.46 7.59C22.46 7.52 22.43 7.45 22.38 7.39C22.33 7.34 22.26 7.31 22.18 7.31L13.66 7.31C13.59 7.31 13.52 7.34 13.47 7.39C13.41 7.45 13.39 7.52 13.39 7.59L13.39 12C13.39 12.08 13.41 12.15 13.47 12.2C13.52 12.25 13.59 12.28 13.66 12.28ZM13.93 7.87L21.91 7.87L21.91 11.72L13.93 11.72L13.93 7.87ZM2.83 24.53L22.18 24.53C22.26 24.53 22.33 24.5 22.38 24.45C22.43 24.4 22.46 24.32 22.46 24.25L22.46 19.84C22.46 19.77 22.43 19.7 22.38 19.65C22.33 19.59 22.26 19.56 22.18 19.56L2.83 19.56C2.76 19.56 2.69 19.59 2.64 19.65C2.58 19.7 2.56 19.77 2.56 19.84L2.56 24.25C2.56 24.32 2.58 24.4 2.64 24.45C2.69 24.5 2.76 24.53 2.83 24.53ZM3.1 20.12L21.91 20.12L21.91 23.97L3.1 23.97L3.1 20.12ZM2.83 26.49L22.18 26.49C22.26 26.49 22.33 26.46 22.38 26.41C22.43 26.36 22.46 26.28 22.46 26.21C22.46 26.14 22.43 26.06 22.38 26.01C22.33 25.96 22.26 25.93 22.18 25.93L2.83 25.93C2.76 25.93 2.69 25.96 2.64 26.01C2.58 26.06 2.56 26.14 2.56 26.21C2.56 26.28 2.58 26.36 2.64 26.41C2.69 26.46 2.76 26.49 2.83 26.49ZM2.83 28.45L22.18 28.45C22.26 28.45 22.33 28.42 22.38 28.37C22.43 28.32 22.46 28.24 22.46 28.17C22.46 28.1 22.43 28.02 22.38 27.97C22.33 27.92 22.26 27.89 22.18 27.89L2.83 27.89C2.76 27.89 2.69 27.92 2.64 27.97C2.58 28.02 2.56 28.1 2.56 28.17C2.56 28.24 2.58 28.32 2.64 28.37C2.69 28.42 2.76 28.45 2.83 28.45ZM2.83 30.41L19.44 30.41C19.51 30.41 19.58 30.38 19.63 30.33C19.68 30.28 19.71 30.2 19.71 30.13C19.71 30.06 19.68 29.98 19.63 29.93C19.58 29.88 19.51 29.85 19.44 29.85L2.83 29.85C2.76 29.85 2.69 29.88 2.64 29.93C2.58 29.98 2.56 30.06 2.56 30.13C2.56 30.2 2.58 30.28 2.64 30.33C2.69 30.38 2.76 30.41 2.83 30.41ZM2.83 32.37L19.44 32.37C19.51 32.37 19.58 32.34 19.63 32.29C19.68 32.24 19.71 32.16 19.71 32.09C19.71 32.02 19.68 31.94 19.63 31.89C19.58 31.84 19.51 31.81 19.44 31.81L2.83 31.81C2.76 31.81 2.69 31.84 2.64 31.89C2.58 31.94 2.56 32.02 2.56 32.09C2.56 32.16 2.58 32.24 2.64 32.29C2.69 32.34 2.76 32.37 2.83 32.37ZM24.49 32.37L33.01 32.37C33.09 32.37 33.16 32.34 33.21 32.29C33.26 32.24 33.29 32.16 33.29 32.09L33.29 19.84C33.29 19.77 33.26 19.7 33.21 19.65C33.16 19.59 33.09 19.56 33.01 19.56L24.49 19.56C24.42 19.56 24.35 19.59 24.3 19.65C24.24 19.7 24.22 19.77 24.22 19.84L24.22 32.09C24.22 32.16 24.24 32.24 24.3 32.29C24.35 32.34 24.42 32.37 24.49 32.37ZM24.76 20.12L32.74 20.12L32.74 31.81L24.76 31.81L24.76 20.12Z" fill="#A9A9A9" fill-opacity="1.000000" fill-rule="nonzero"/>
</svg>
