<svg width="35.000000" height="35.000000" viewBox="0 0 35 35" fill="none" xmlns="http://www.w3.org/2000/svg" xmlns:xlink="http://www.w3.org/1999/xlink">
	<desc>
			Created with Pixso.
	</desc>
	<defs/>
	<path id="Vector" d="M34.6 0L0.39 0C0.28 0 0.18 0.04 0.11 0.13C0.04 0.21 0 0.33 0 0.45L0 34.54C0 34.66 0.04 34.78 0.11 34.86C0.18 34.95 0.28 35 0.39 35L34.6 35C34.71 35 34.81 34.95 34.88 34.86C34.95 34.78 35 34.66 35 34.54L35 0.45C35 0.33 34.95 0.21 34.88 0.13C34.81 0.04 34.71 0 34.6 0ZM0.78 0.9L5.7 0.9L5.7 6.81L0.78 6.81L0.78 0.9ZM34.21 34.09L0.78 34.09L0.78 7.72L34.21 7.72L34.21 34.09ZM34.21 6.81L6.48 6.81L6.48 0.9L34.21 0.9L34.21 6.81Z" fill="#A9A9A9" fill-opacity="1.000000" fill-rule="nonzero"/>
	<path id="Vector" d="M21.07 21.9C21.35 21.9 21.63 21.85 21.89 21.75C22.18 21.65 22.44 21.48 22.67 21.26C22.89 21.04 23.08 20.77 23.22 20.46C23.35 20.15 23.44 19.82 23.46 19.48C23.49 19.13 23.45 18.79 23.36 18.46L25.36 9.77C25.39 9.65 25.37 9.53 25.32 9.43C25.27 9.33 25.19 9.25 25.09 9.22L23.95 8.86C23.85 8.83 23.75 8.84 23.66 8.9C23.57 8.95 23.5 9.05 23.47 9.16L21.19 17.5C20.76 17.65 20.39 17.97 20.14 18.4C19.7 19 19.4 19.35 18.94 19.2C18.87 19.17 18.8 19.17 18.73 19.2C18.66 19.22 18.6 19.26 18.55 19.32C18.5 19.38 18.47 19.45 18.45 19.53C18.44 19.61 18.44 19.69 18.46 19.77C18.65 20.4 19 20.94 19.47 21.32C19.94 21.7 20.5 21.9 21.07 21.9ZM24.1 9.85L24.49 9.98L22.7 17.88L21.96 17.64L24.1 9.85ZM20.74 18.96C21.01 18.59 21.23 18.33 21.36 18.38L22.64 18.83C22.74 19.26 22.7 19.72 22.51 20.1C22.33 20.49 22.02 20.78 21.66 20.91C21.26 21.06 20.84 21.06 20.45 20.91C20.06 20.76 19.72 20.48 19.48 20.09C19.99 19.88 20.43 19.49 20.74 18.96ZM27.59 20.22L30.72 15.16C30.76 15.08 30.79 14.99 30.79 14.89C30.79 14.8 30.76 14.7 30.72 14.63L27.59 9.56L26.95 10.09L29.92 14.89L26.95 19.7L27.59 20.22ZM17.18 20.61L17.81 20.08L14.61 14.9L17.81 9.72L17.18 9.19L13.81 14.64C13.76 14.72 13.74 14.81 13.74 14.91C13.74 15 13.76 15.1 13.81 15.17L17.18 20.61ZM13.83 25.76L32.31 25.76C32.41 25.76 32.51 25.72 32.58 25.63C32.66 25.55 32.7 25.43 32.7 25.31L32.7 23.18C32.7 23.06 32.66 22.94 32.58 22.86C32.51 22.77 32.41 22.72 32.31 22.72L13.83 22.72C13.73 22.72 13.63 22.77 13.55 22.86C13.48 22.94 13.44 23.06 13.44 23.18L13.44 25.31C13.44 25.43 13.48 25.55 13.55 25.63C13.63 25.72 13.73 25.76 13.83 25.76ZM14.22 23.63L31.92 23.63L31.92 24.85L14.22 24.85L14.22 23.63ZM13.83 30.74L28.78 30.74C28.89 30.74 28.99 30.69 29.06 30.6C29.13 30.52 29.18 30.4 29.18 30.28L29.18 28.15C29.18 28.03 29.13 27.91 29.06 27.83C28.99 27.74 28.89 27.7 28.78 27.7L13.83 27.7C13.73 27.7 13.63 27.74 13.55 27.83C13.48 27.91 13.44 28.03 13.44 28.15L13.44 30.28C13.44 30.4 13.48 30.52 13.55 30.6C13.63 30.69 13.73 30.74 13.83 30.74ZM14.22 28.6L28.39 28.6L28.39 29.83L14.22 29.83L14.22 28.6ZM2.44 10.4L2.44 20.34C2.44 20.46 2.48 20.57 2.55 20.66C2.63 20.74 2.73 20.79 2.83 20.79L11.39 20.79C11.49 20.79 11.59 20.74 11.66 20.66C11.74 20.57 11.78 20.46 11.78 20.34L11.78 10.4C11.78 10.27 11.74 10.16 11.66 10.07C11.59 9.99 11.49 9.94 11.39 9.94L2.83 9.94C2.73 9.94 2.63 9.99 2.55 10.07C2.48 10.16 2.44 10.27 2.44 10.4ZM3.22 10.85L10.99 10.85L10.99 19.88L3.22 19.88L3.22 10.85ZM11.39 22.72L2.83 22.72C2.73 22.72 2.63 22.77 2.55 22.86C2.48 22.94 2.44 23.06 2.44 23.18L2.44 31.7C2.44 31.82 2.48 31.94 2.55 32.02C2.63 32.11 2.73 32.15 2.83 32.15L11.39 32.15C11.49 32.15 11.59 32.11 11.66 32.02C11.74 31.94 11.78 31.82 11.78 31.7L11.78 23.18C11.78 23.06 11.74 22.94 11.66 22.86C11.59 22.77 11.49 22.72 11.39 22.72ZM10.33 23.63L7.11 26.84L3.89 23.63L10.33 23.63ZM3.22 24.16L6.51 27.44L3.22 30.71L3.22 24.16ZM3.89 31.25L7.11 28.04L10.33 31.25L3.89 31.25ZM10.99 30.71L7.72 27.44L11.01 24.16L10.99 30.71ZM12.82 5.28C12.83 5.31 12.84 5.35 12.85 5.38C12.87 5.41 12.89 5.43 12.92 5.44C12.96 5.46 13 5.47 13.04 5.47L13.46 5.47C13.5 5.47 13.54 5.46 13.58 5.44C13.61 5.43 13.63 5.4 13.65 5.38C13.66 5.35 13.67 5.31 13.68 5.28L14.13 3.1L14.6 5.28C14.61 5.31 14.62 5.35 14.64 5.38C14.65 5.41 14.67 5.43 14.7 5.44C14.74 5.46 14.78 5.47 14.83 5.47L15.22 5.47C15.26 5.47 15.3 5.46 15.34 5.44C15.37 5.43 15.4 5.41 15.41 5.38C15.43 5.35 15.44 5.31 15.45 5.28L16.13 2.28C16.14 2.23 16.15 2.18 16.16 2.12C16.16 2.09 16.15 2.06 16.13 2.04C16.11 2.01 16.08 2 16.05 2L15.73 2C15.7 2 15.66 2.01 15.64 2.03C15.63 2.03 15.62 2.04 15.61 2.04C15.6 2.05 15.6 2.06 15.59 2.07C15.59 2.1 15.59 2.12 15.59 2.15L15.07 4.77L14.51 2.15C14.51 2.12 14.5 2.09 14.48 2.06C14.47 2.04 14.45 2.02 14.43 2.01C14.4 2 14.37 1.99 14.33 1.99L13.97 1.99C13.94 1.99 13.91 2 13.88 2.02C13.86 2.03 13.84 2.04 13.83 2.06C13.81 2.09 13.81 2.12 13.8 2.15L13.27 4.77L12.75 2.13C12.75 2.1 12.75 2.08 12.74 2.05C12.73 2.03 12.71 2.02 12.69 2.01C12.66 2 12.63 2 12.6 2.01L12.24 2.01C12.21 2.01 12.18 2.02 12.15 2.05C12.14 2.06 12.13 2.07 12.13 2.08C12.12 2.1 12.12 2.12 12.12 2.13C12.12 2.18 12.12 2.23 12.12 2.28L12.82 5.28ZM18.6 5.28C18.61 5.31 18.62 5.35 18.64 5.38C18.65 5.41 18.68 5.43 18.7 5.44C18.74 5.46 18.79 5.47 18.83 5.47L19.24 5.47C19.28 5.47 19.32 5.46 19.36 5.44C19.39 5.43 19.41 5.41 19.43 5.38C19.45 5.35 19.46 5.31 19.46 5.28L19.91 3.1L20.39 5.28C20.39 5.31 20.4 5.35 20.42 5.38C20.43 5.41 20.46 5.43 20.49 5.44C20.53 5.46 20.57 5.47 20.61 5.47L21 5.47C21.04 5.47 21.09 5.46 21.13 5.44C21.16 5.43 21.18 5.41 21.2 5.38C21.22 5.35 21.23 5.31 21.24 5.28L21.92 2.28C21.93 2.23 21.94 2.18 21.94 2.12C21.95 2.11 21.95 2.09 21.95 2.08C21.95 2.06 21.95 2.05 21.94 2.04C21.92 2.01 21.89 2 21.86 2L21.53 2C21.5 2 21.47 2.01 21.44 2.03C21.43 2.03 21.43 2.04 21.42 2.04C21.41 2.05 21.4 2.06 21.4 2.07C21.4 2.1 21.4 2.12 21.4 2.15L20.85 4.77L20.29 2.15C20.29 2.12 20.28 2.09 20.27 2.06C20.26 2.05 20.24 2.05 20.23 2.04C20.2 2.03 20.16 2.02 20.13 2.02L19.79 2.02C19.76 2.02 19.72 2.03 19.69 2.05C19.68 2.05 19.67 2.05 19.66 2.06C19.66 2.07 19.65 2.08 19.65 2.09C19.63 2.12 19.62 2.15 19.62 2.18L19.06 4.77L18.54 2.13C18.53 2.1 18.53 2.08 18.52 2.05C18.51 2.03 18.49 2.02 18.48 2.01C18.44 2 18.41 2 18.38 2.01L18.03 2.01C17.99 2.01 17.96 2.02 17.93 2.05C17.92 2.06 17.92 2.07 17.91 2.09C17.91 2.1 17.9 2.12 17.9 2.13C17.9 2.17 17.91 2.22 17.93 2.28L18.6 5.28ZM24.38 5.28C24.39 5.31 24.41 5.35 24.42 5.38C24.44 5.41 24.46 5.43 24.49 5.44C24.53 5.46 24.57 5.47 24.61 5.47L25.03 5.47C25.07 5.47 25.11 5.46 25.15 5.44C25.17 5.43 25.2 5.4 25.21 5.38C25.23 5.35 25.24 5.31 25.25 5.28L25.71 3.1L26.18 5.28C26.19 5.31 26.2 5.35 26.21 5.38C26.23 5.41 26.25 5.43 26.28 5.44C26.32 5.46 26.36 5.47 26.4 5.47L26.79 5.47C26.84 5.47 26.88 5.46 26.92 5.44C26.95 5.43 26.97 5.41 26.99 5.38C27.01 5.35 27.02 5.31 27.03 5.28L27.71 2.28C27.72 2.23 27.73 2.18 27.73 2.12C27.74 2.11 27.74 2.09 27.74 2.08C27.74 2.06 27.74 2.05 27.73 2.04C27.71 2.02 27.68 2 27.65 2L27.31 2C27.28 2 27.25 2.01 27.22 2.03C27.2 2.04 27.18 2.05 27.17 2.07C27.17 2.1 27.17 2.12 27.17 2.15L26.64 4.77L26.08 2.15C26.08 2.12 26.07 2.09 26.05 2.06C26.04 2.04 26.02 2.02 26 2.01C25.97 2 25.94 1.99 25.9 1.99L25.56 1.99C25.53 1.99 25.5 2 25.46 2.02C25.44 2.03 25.43 2.04 25.41 2.06C25.4 2.09 25.4 2.12 25.39 2.15L24.84 4.77L24.32 2.13C24.33 2.1 24.33 2.08 24.32 2.05C24.32 2.04 24.31 2.03 24.3 2.02C24.29 2.02 24.29 2.01 24.28 2.01C24.24 2 24.21 2 24.18 2.01L23.83 2.01C23.8 2.01 23.76 2.02 23.74 2.05C23.73 2.06 23.72 2.07 23.71 2.09C23.71 2.1 23.71 2.12 23.71 2.13C23.71 2.18 23.72 2.23 23.73 2.28L24.38 5.28Z" fill="#A9A9A9" fill-opacity="1.000000" fill-rule="nonzero"/>
</svg>
