<svg width="34.000000" height="33.999756" viewBox="0 0 34 33.9998" fill="none" xmlns="http://www.w3.org/2000/svg" xmlns:xlink="http://www.w3.org/1999/xlink">
	<desc>
			Created with Pixso.
	</desc>
	<defs/>
	<path id="Vector" d="M12.61 9.88C12.94 9.88 13.16 9.66 13.16 9.33L13.16 8.23C13.16 5 16.01 2.15 17 1.27C17.43 1.65 18.2 2.42 18.91 3.35C19.08 3.57 19.46 3.63 19.68 3.46C19.9 3.3 19.96 2.91 19.79 2.69C18.59 1.11 17.38 0.12 17.32 0.12C17.1 -0.05 16.83 -0.05 16.67 0.12C16.45 0.28 12.06 3.79 12.06 8.23L12.06 9.33C12.06 9.66 12.28 9.88 12.61 9.88Z" fill="#A9A9A9" fill-opacity="1.000000" fill-rule="nonzero"/>
	<path id="Vector" d="M17 4.39C16.5 4.39 16.06 4.5 15.62 4.78C15.35 4.94 15.3 5.27 15.4 5.55C15.57 5.82 15.9 5.87 16.17 5.76C16.45 5.6 16.72 5.55 17 5.55C17.93 5.55 18.64 6.26 18.64 7.19C18.64 8.12 17.93 8.83 17 8.83C16.06 8.83 15.35 8.12 15.35 7.19C15.35 6.86 15.13 6.64 14.8 6.64C14.47 6.64 14.25 6.86 14.25 7.19C14.25 8.72 15.46 9.93 17 9.93C18.53 9.93 19.74 8.72 19.74 7.19C19.74 5.65 18.53 4.39 17 4.39ZM26.87 7.68C27.2 7.68 27.41 7.46 27.41 7.13C27.41 6.81 27.2 6.59 26.87 6.59C26.54 6.59 26.32 6.37 26.32 6.04C26.32 5.71 26.54 5.49 26.87 5.49C27.2 5.49 27.41 5.27 27.41 4.94C27.41 4.61 27.63 4.39 27.96 4.39L28.02 4.39C28.29 4.5 28.62 4.45 28.73 4.17C29 3.63 29.55 3.3 30.16 3.3C31.09 3.3 31.8 4.01 31.8 4.94C31.8 5.27 32.02 5.49 32.35 5.49C32.68 5.49 32.9 5.71 32.9 6.04C32.9 6.37 32.68 6.59 32.35 6.59L29.06 6.59C28.73 6.59 28.51 6.81 28.51 7.13C28.51 7.46 28.73 7.68 29.06 7.68L32.35 7.68C33.28 7.68 34 6.97 34 6.04C34 5.33 33.5 4.67 32.84 4.45C32.62 3.19 31.53 2.2 30.16 2.2C29.28 2.2 28.46 2.59 27.96 3.3C27.2 3.3 26.59 3.79 26.37 4.45C25.71 4.67 25.22 5.27 25.22 6.04C25.22 6.97 25.93 7.68 26.87 7.68ZM7.67 14.81C7.67 15.74 8.39 16.45 9.32 16.45L14.8 16.45C15.73 16.45 16.45 15.74 16.45 14.81C16.45 14.1 15.95 13.44 15.3 13.22C15.08 11.96 13.98 10.97 12.61 10.97C12.28 10.97 12.06 11.19 12.06 11.52C12.06 11.85 12.28 12.07 12.61 12.07C13.54 12.07 14.25 12.78 14.25 13.71C14.25 14.04 14.47 14.26 14.8 14.26C15.13 14.26 15.35 14.48 15.35 14.81C15.35 15.14 15.13 15.36 14.8 15.36L9.32 15.36C8.99 15.36 8.77 15.14 8.77 14.81C8.77 14.48 8.99 14.26 9.32 14.26C9.65 14.26 9.87 14.04 9.87 13.71C9.87 13.38 10.09 13.16 10.41 13.16L10.47 13.16C10.74 13.27 11.07 13.16 11.18 12.95C11.29 12.67 11.18 12.34 10.96 12.23C10.69 12.07 10.58 12.07 10.41 12.07C9.65 12.07 9.04 12.56 8.82 13.22C8.17 13.44 7.67 14.04 7.67 14.81ZM1.64 5.49L4.99 5.49C5.31 5.49 5.53 5.27 5.53 4.94C5.53 4.61 5.31 4.39 4.99 4.39L1.64 4.39C1.31 4.39 1.09 4.17 1.09 3.85C1.09 3.52 1.31 3.3 1.64 3.3C1.97 3.3 2.19 3.08 2.19 2.75C2.19 2.42 2.41 2.2 2.74 2.2L2.79 2.2C3.07 2.31 3.39 2.26 3.5 1.98C3.78 1.43 4.33 1.11 4.93 1.11C5.86 1.11 6.58 1.82 6.58 2.75C6.58 3.08 6.8 3.3 7.12 3.3C7.45 3.3 7.67 3.52 7.67 3.85C7.67 4.17 7.45 4.39 7.12 4.39C6.8 4.39 6.58 4.61 6.58 4.94C6.58 5.27 6.8 5.49 7.12 5.49C8.06 5.49 8.77 4.78 8.77 3.85C8.77 3.13 8.28 2.48 7.62 2.26C7.4 1 6.3 0.01 4.93 0.01C4.05 0.01 3.23 0.39 2.74 1.11C2.02 1.11 1.37 1.6 1.15 2.26C0.49 2.48 0 3.08 0 3.85C0 4.78 0.71 5.49 1.64 5.49Z" fill="#A9A9A9" fill-opacity="1.000000" fill-rule="nonzero"/>
	<path id="Vector" d="M21.55 28.51C21.77 28.51 21.99 28.35 22.04 28.13C22.42 27.03 23.47 26.32 24.67 26.32C25.06 26.32 25.39 26.43 25.71 26.54C25.88 26.59 25.99 26.54 26.15 26.48C26.26 26.43 26.37 26.32 26.43 26.16C26.76 24.95 27.85 24.13 29.06 24.13C29.72 24.13 30.38 24.4 30.92 24.84C31.14 25.06 31.47 25 31.69 24.79C31.91 24.57 31.86 24.24 31.64 24.02C30.92 23.36 29.99 23.03 29.06 23.03C27.52 23.03 26.15 23.96 25.55 25.33C25.28 25.28 25 25.22 24.67 25.22C23.14 25.22 21.82 26.1 21.16 27.42C20.67 27.47 20.18 27.58 19.74 27.86L19.74 27.03L21.66 24.13L24.67 24.13C25 24.13 25.22 23.91 25.22 23.58L25.22 21.39C25.22 21.22 25.11 21.06 25 20.95L21.93 18.92L21.93 8.23C21.93 7.19 21.66 6.09 21.22 5.05C21.11 4.78 20.78 4.67 20.5 4.78C20.23 4.89 20.12 5.22 20.23 5.49C20.67 6.42 20.89 7.35 20.89 8.23L20.89 23.03L17.6 23.03L17.6 19.19C17.6 18.87 17.38 18.65 17.05 18.65C16.72 18.65 16.5 18.87 16.5 19.19L16.5 23.03L13.21 23.03L13.21 17.99C13.21 17.66 12.99 17.44 12.66 17.44C12.33 17.44 12.11 17.66 12.11 17.99L12.11 18.92L9.04 20.95C8.88 21.06 8.77 21.22 8.77 21.39L8.77 23.58C8.77 23.91 8.99 24.13 9.32 24.13L12.33 24.13L14.25 27.03L14.25 27.8C13.81 27.58 13.32 27.42 12.83 27.42C12.17 26.1 10.8 25.22 9.32 25.22C8.99 25.22 8.71 25.22 8.44 25.33C7.84 23.96 6.47 23.03 4.93 23.03C2.79 23.03 1.09 24.73 1.09 26.87C1.09 27.14 1.15 27.42 1.2 27.64L1.2 27.75C1.26 28.02 1.53 28.24 1.86 28.18C2.13 28.13 2.35 27.86 2.3 27.53L2.3 27.42C2.24 27.2 2.19 27.03 2.19 26.87C2.19 25.33 3.39 24.13 4.93 24.13C6.14 24.13 7.23 24.95 7.56 26.16C7.62 26.32 7.73 26.43 7.84 26.48C8 26.54 8.17 26.54 8.28 26.48C8.55 26.37 8.88 26.32 9.26 26.32C10.41 26.32 11.46 27.09 11.89 28.18C11.95 28.4 12.17 28.51 12.39 28.51L12.5 28.51C13.21 28.51 13.87 28.79 14.36 29.28C14.47 29.39 14.58 29.44 14.75 29.44C14.8 29.44 14.91 29.44 14.97 29.39C15.19 29.28 15.3 29.12 15.3 28.9L15.3 27.42L18.59 27.42L18.59 28.9C18.59 29.12 18.7 29.34 18.91 29.39C19.13 29.5 19.35 29.44 19.52 29.28C19.9 28.9 20.56 28.51 21.38 28.51L21.55 28.51ZM21.93 20.24L24.12 21.72L24.12 23.03L21.93 23.03L21.93 20.24ZM12.06 23.03L9.87 23.03L9.87 21.66L12.06 20.18L12.06 23.03ZM18.91 26.32L15.13 26.32L13.65 24.13L20.39 24.13L18.91 26.32ZM14.86 32.9L3.83 32.9C2.3 32.9 1.09 31.69 1.09 30.16C1.09 29.94 1.15 29.72 1.2 29.5C1.26 29.23 1.09 28.9 0.82 28.84C0.54 28.79 0.21 28.95 0.16 29.23C0.05 29.5 0 29.83 0 30.16C0 32.3 1.69 33.99 3.83 33.99L14.86 33.99C15.19 33.99 15.4 33.78 15.4 33.45C15.4 33.12 15.13 32.9 14.86 32.9ZM17.93 32.9L17 32.9C16.67 32.9 16.45 33.12 16.45 33.45C16.45 33.78 16.67 33.99 17 33.99L17.93 33.99C18.26 33.99 18.48 33.78 18.48 33.45C18.48 33.12 18.26 32.9 17.93 32.9ZM32.57 27.2C32.35 27.03 31.97 27.03 31.8 27.31C31.64 27.53 31.64 27.91 31.91 28.07C32.57 28.57 32.9 29.34 32.9 30.16C32.9 31.69 31.69 32.9 30.16 32.9L20.34 32.9C20.01 32.9 19.79 33.12 19.79 33.45C19.79 33.78 20.01 33.99 20.34 33.99L30.16 33.99C32.3 33.99 34 32.3 34 30.16C34 29.01 33.5 27.91 32.57 27.2Z" fill="#A9A9A9" fill-opacity="1.000000" fill-rule="nonzero"/>
	<path id="Vector" d="M4.66 31.8L7.95 31.8C8.28 31.8 8.5 31.58 8.5 31.25C8.5 30.93 8.28 30.71 7.95 30.71L4.66 30.71C4.05 30.71 3.5 30.38 3.23 29.88C3.07 29.61 2.74 29.55 2.46 29.66C2.19 29.83 2.13 30.16 2.24 30.43C2.74 31.25 3.67 31.8 4.66 31.8ZM11.24 31.8C11.57 31.8 11.79 31.58 11.79 31.25C11.79 30.93 11.57 30.71 11.24 30.71L10.14 30.71C9.81 30.71 9.59 30.93 9.59 31.25C9.59 31.58 9.81 31.8 10.14 31.8L11.24 31.8ZM19.19 15.36C18.86 15.36 18.64 15.58 18.64 15.91L18.64 21.39C18.64 21.72 18.86 21.94 19.19 21.94C19.52 21.94 19.74 21.72 19.74 21.39L19.74 15.91C19.74 15.58 19.52 15.36 19.19 15.36ZM19.74 12.62C19.74 12.29 19.52 12.07 19.19 12.07C18.86 12.07 18.64 12.29 18.64 12.62L18.64 13.71C18.64 14.04 18.86 14.26 19.19 14.26C19.52 14.26 19.74 14.04 19.74 13.71L19.74 12.62Z" fill="#A9A9A9" fill-opacity="1.000000" fill-rule="nonzero"/>
</svg>
